<svg width="167" height="167" viewBox="0 0 167 167" fill="none" xmlns="http://www.w3.org/2000/svg">
<g clip-path="url(#clip0_249_61)">
<path d="M100.603 2.98251L87.8505 54.837C86.6575 59.6502 79.808 59.6296 78.6561 54.7959L66.2735 2.98251C65.9033 1.4604 67.0552 0 68.6184 0H98.2584C99.8216 0 100.974 1.4604 100.603 2.98251Z" fill="black"/>
<path d="M167 68.6181V98.2581C167 99.8213 165.54 100.973 164.017 100.603L112.163 87.8502C107.35 86.6572 107.37 79.8077 112.204 78.6558L164.038 66.2938C165.56 65.9236 167.021 67.0754 167.021 68.6387L167 68.6181Z" fill="black"/>
<path d="M98.3817 167H68.7417C67.1785 167 66.0266 165.54 66.3968 164.017L79.1496 112.163C80.3426 107.35 87.1921 107.37 88.344 112.204L100.706 164.038C101.076 165.56 99.9244 167.021 98.3611 167.021L98.3817 167Z" fill="black"/>
<path d="M54.8165 88.3646L2.98251 100.727C1.4604 101.097 0 99.9449 0 98.3817V68.7417C0 67.1785 1.4604 66.0266 2.98251 66.3968L54.837 79.1496C59.6502 80.3426 59.6296 87.1921 54.7959 88.344L54.8165 88.3646Z" fill="black"/>
<path d="M60.0616 66.9522L1.15187 30.7301C0.43195 30.2982 0 29.5166 0 28.6732V2.40658C0 1.09016 1.09016 0 2.40658 0H28.6527C29.496 0 30.2776 0.43195 30.7096 1.17244L66.582 60.473C69.1531 64.7308 64.2782 69.5645 60.041 66.9522H60.0616Z" fill="black"/>
<path d="M167 2.65322V28.8993C167 29.7426 166.568 30.5243 165.828 30.9562L106.527 66.8286C102.269 69.3997 97.4356 64.5249 100.048 60.2877L136.29 1.37794C136.722 0.658024 137.504 0.226074 138.347 0.226074H164.593C165.93 0.226074 167 1.31623 167 2.63265V2.65322Z" fill="black"/>
<path d="M167 138.347V164.593C167 165.93 165.91 167 164.593 167H138.347C137.504 167 136.722 166.568 136.29 165.828L100.418 106.527C97.847 102.269 102.722 97.4356 106.959 100.048L165.869 136.27C166.589 136.702 167.021 137.483 167.021 138.327L167 138.347Z" fill="black"/>
<path d="M66.9522 106.712L30.7301 165.642C30.2982 166.362 29.5166 166.794 28.6732 166.794H2.40658C1.06959 166.794 0 165.704 0 164.388V138.142C0 137.298 0.43195 136.517 1.17244 136.085L60.473 100.212C64.7308 97.6412 69.5645 102.516 66.9522 106.753V106.712Z" fill="black"/>
</g>
<defs>
<clipPath id="clip0_249_61">
<rect width="167" height="167" fill="white"/>
</clipPath>
</defs>
</svg>
